<?xml version="1.0"?>
<svg xmlns="http://www.w3.org/2000/svg" xmlns:xlink="http://www.w3.org/1999/xlink" xmlns:svgjs="http://svgjs.com/svgjs" version="1.1" width="512" height="512" x="0" y="0" viewBox="0 0 490 490" style="enable-background:new 0 0 512 512" xml:space="preserve"><g><link type="text/css" rel="stylesheet" id="dark-mode-general-link"/><link type="text/css" rel="stylesheet" id="dark-mode-custom-link"/><style lang="en" type="text/css" id="dark-mode-custom-style"/>
<g xmlns="http://www.w3.org/2000/svg">
	<path d="M189.8,245c0-30.5,24.7-55.2,55.2-55.2s55.2,24.7,55.2,55.2s-24.7,55.2-55.2,55.2S189.8,275.5,189.8,245z M434.8,189.8   c-30.5,0-55.2,24.7-55.2,55.2s24.7,55.2,55.2,55.2S490,275.5,490,245S465.3,189.8,434.8,189.8z M55.2,189.8   C24.7,189.8,0,214.5,0,245s24.7,55.2,55.2,55.2s55.2-24.7,55.2-55.2C110.4,214.5,85.7,189.8,55.2,189.8z" fill="#ffffff" data-original="#000000" style=""/>
</g>
<g xmlns="http://www.w3.org/2000/svg">
</g>
<g xmlns="http://www.w3.org/2000/svg">
</g>
<g xmlns="http://www.w3.org/2000/svg">
</g>
<g xmlns="http://www.w3.org/2000/svg">
</g>
<g xmlns="http://www.w3.org/2000/svg">
</g>
<g xmlns="http://www.w3.org/2000/svg">
</g>
<g xmlns="http://www.w3.org/2000/svg">
</g>
<g xmlns="http://www.w3.org/2000/svg">
</g>
<g xmlns="http://www.w3.org/2000/svg">
</g>
<g xmlns="http://www.w3.org/2000/svg">
</g>
<g xmlns="http://www.w3.org/2000/svg">
</g>
<g xmlns="http://www.w3.org/2000/svg">
</g>
<g xmlns="http://www.w3.org/2000/svg">
</g>
<g xmlns="http://www.w3.org/2000/svg">
</g>
<g xmlns="http://www.w3.org/2000/svg">
</g>
</g></svg>
